G75*
%MOIN*%
%OFA0B0*%
%FSLAX25Y25*%
%IPPOS*%
%LPD*%
%AMOC8*
5,1,8,0,0,1.08239X$1,22.5*
%
%ADD10C,0.11800*%
%ADD11OC8,0.07100*%
%ADD12C,0.06000*%
%ADD13OC8,0.06800*%
%ADD14C,0.06000*%
%ADD15C,0.06800*%
D10*
X0009300Y0009550D03*
X0143050Y0009550D03*
X0144300Y0152050D03*
X0009300Y0152050D03*
D11*
X0123050Y0134550D03*
X0133050Y0134550D03*
X0133050Y0068300D03*
X0123050Y0068300D03*
D12*
X0123050Y0091300D03*
X0123050Y0110300D03*
D13*
X0114300Y0013300D03*
X0030550Y0107050D03*
X0020550Y0107050D03*
D14*
X0064200Y0105800D02*
X0069400Y0105800D01*
X0069400Y0095800D02*
X0064200Y0095800D01*
X0064200Y0085800D02*
X0069400Y0085800D01*
X0069400Y0075800D02*
X0064200Y0075800D01*
X0064200Y0065800D02*
X0069400Y0065800D01*
X0069400Y0055800D02*
X0064200Y0055800D01*
X0064200Y0045800D02*
X0069400Y0045800D01*
X0069400Y0035800D02*
X0064200Y0035800D01*
X0064200Y0025800D02*
X0069400Y0025800D01*
X0069400Y0015800D02*
X0064200Y0015800D01*
X0094200Y0015800D02*
X0099400Y0015800D01*
X0099400Y0025800D02*
X0094200Y0025800D01*
X0094200Y0035800D02*
X0099400Y0035800D01*
X0099400Y0045800D02*
X0094200Y0045800D01*
X0094200Y0055800D02*
X0099400Y0055800D01*
X0099400Y0065800D02*
X0094200Y0065800D01*
X0094200Y0075800D02*
X0099400Y0075800D01*
X0099400Y0085800D02*
X0094200Y0085800D01*
X0094200Y0095800D02*
X0099400Y0095800D01*
X0099400Y0105800D02*
X0094200Y0105800D01*
X0094200Y0115800D02*
X0099400Y0115800D01*
X0099400Y0125800D02*
X0094200Y0125800D01*
X0094200Y0135800D02*
X0099400Y0135800D01*
X0099400Y0145800D02*
X0094200Y0145800D01*
X0069400Y0145800D02*
X0064200Y0145800D01*
X0064200Y0135800D02*
X0069400Y0135800D01*
X0069400Y0125800D02*
X0064200Y0125800D01*
X0064200Y0115800D02*
X0069400Y0115800D01*
D15*
X0040550Y0127800D02*
X0040550Y0133800D01*
X0030550Y0133800D02*
X0030550Y0127800D01*
X0020550Y0127800D02*
X0020550Y0133800D01*
X0021800Y0072550D02*
X0021800Y0066550D01*
X0031800Y0066550D02*
X0031800Y0072550D01*
X0031800Y0048800D02*
X0031800Y0042800D01*
X0021800Y0042800D02*
X0021800Y0048800D01*
X0041800Y0048800D02*
X0041800Y0042800D01*
X0041800Y0026300D02*
X0041800Y0020300D01*
X0031800Y0020300D02*
X0031800Y0026300D01*
X0021800Y0026300D02*
X0021800Y0020300D01*
X0111000Y0030650D02*
X0117000Y0030650D01*
X0117000Y0048450D02*
X0111000Y0048450D01*
X0136600Y0048450D02*
X0142600Y0048450D01*
X0142600Y0030650D02*
X0136600Y0030650D01*
M02*
