G75*
%MOIN*%
%OFA0B0*%
%FSLAX25Y25*%
%IPPOS*%
%LPD*%
%AMOC8*
5,1,8,0,0,1.08239X$1,22.5*
%
%ADD10C,0.01200*%
%ADD11C,0.00000*%
%ADD12C,0.01600*%
D10*
X0001800Y0002050D02*
X0151800Y0002050D01*
D11*
X0137550Y0009550D02*
X0137552Y0009698D01*
X0137558Y0009846D01*
X0137568Y0009994D01*
X0137582Y0010142D01*
X0137600Y0010289D01*
X0137622Y0010436D01*
X0137648Y0010582D01*
X0137677Y0010727D01*
X0137711Y0010872D01*
X0137749Y0011015D01*
X0137790Y0011158D01*
X0137835Y0011299D01*
X0137885Y0011439D01*
X0137937Y0011577D01*
X0137994Y0011715D01*
X0138054Y0011850D01*
X0138118Y0011984D01*
X0138185Y0012116D01*
X0138256Y0012246D01*
X0138331Y0012375D01*
X0138409Y0012501D01*
X0138490Y0012625D01*
X0138574Y0012747D01*
X0138662Y0012866D01*
X0138753Y0012983D01*
X0138847Y0013098D01*
X0138945Y0013210D01*
X0139045Y0013319D01*
X0139148Y0013426D01*
X0139254Y0013530D01*
X0139362Y0013631D01*
X0139474Y0013729D01*
X0139588Y0013824D01*
X0139704Y0013915D01*
X0139823Y0014004D01*
X0139944Y0014089D01*
X0140068Y0014171D01*
X0140194Y0014250D01*
X0140321Y0014325D01*
X0140451Y0014397D01*
X0140583Y0014466D01*
X0140716Y0014530D01*
X0140851Y0014591D01*
X0140988Y0014649D01*
X0141126Y0014703D01*
X0141266Y0014753D01*
X0141407Y0014799D01*
X0141549Y0014841D01*
X0141692Y0014880D01*
X0141836Y0014914D01*
X0141982Y0014945D01*
X0142127Y0014972D01*
X0142274Y0014995D01*
X0142421Y0015014D01*
X0142569Y0015029D01*
X0142716Y0015040D01*
X0142865Y0015047D01*
X0143013Y0015050D01*
X0143161Y0015049D01*
X0143309Y0015044D01*
X0143457Y0015035D01*
X0143605Y0015022D01*
X0143753Y0015005D01*
X0143899Y0014984D01*
X0144046Y0014959D01*
X0144191Y0014930D01*
X0144336Y0014898D01*
X0144479Y0014861D01*
X0144622Y0014821D01*
X0144764Y0014776D01*
X0144904Y0014728D01*
X0145043Y0014676D01*
X0145180Y0014621D01*
X0145316Y0014561D01*
X0145451Y0014498D01*
X0145583Y0014432D01*
X0145714Y0014362D01*
X0145843Y0014288D01*
X0145969Y0014211D01*
X0146094Y0014131D01*
X0146216Y0014047D01*
X0146337Y0013960D01*
X0146454Y0013870D01*
X0146570Y0013776D01*
X0146682Y0013680D01*
X0146792Y0013581D01*
X0146900Y0013478D01*
X0147004Y0013373D01*
X0147106Y0013265D01*
X0147204Y0013154D01*
X0147300Y0013041D01*
X0147393Y0012925D01*
X0147482Y0012807D01*
X0147568Y0012686D01*
X0147651Y0012563D01*
X0147731Y0012438D01*
X0147807Y0012311D01*
X0147880Y0012181D01*
X0147949Y0012050D01*
X0148014Y0011917D01*
X0148077Y0011783D01*
X0148135Y0011646D01*
X0148190Y0011508D01*
X0148240Y0011369D01*
X0148288Y0011228D01*
X0148331Y0011087D01*
X0148371Y0010944D01*
X0148406Y0010800D01*
X0148438Y0010655D01*
X0148466Y0010509D01*
X0148490Y0010363D01*
X0148510Y0010216D01*
X0148526Y0010068D01*
X0148538Y0009921D01*
X0148546Y0009772D01*
X0148550Y0009624D01*
X0148550Y0009476D01*
X0148546Y0009328D01*
X0148538Y0009179D01*
X0148526Y0009032D01*
X0148510Y0008884D01*
X0148490Y0008737D01*
X0148466Y0008591D01*
X0148438Y0008445D01*
X0148406Y0008300D01*
X0148371Y0008156D01*
X0148331Y0008013D01*
X0148288Y0007872D01*
X0148240Y0007731D01*
X0148190Y0007592D01*
X0148135Y0007454D01*
X0148077Y0007317D01*
X0148014Y0007183D01*
X0147949Y0007050D01*
X0147880Y0006919D01*
X0147807Y0006789D01*
X0147731Y0006662D01*
X0147651Y0006537D01*
X0147568Y0006414D01*
X0147482Y0006293D01*
X0147393Y0006175D01*
X0147300Y0006059D01*
X0147204Y0005946D01*
X0147106Y0005835D01*
X0147004Y0005727D01*
X0146900Y0005622D01*
X0146792Y0005519D01*
X0146682Y0005420D01*
X0146570Y0005324D01*
X0146454Y0005230D01*
X0146337Y0005140D01*
X0146216Y0005053D01*
X0146094Y0004969D01*
X0145969Y0004889D01*
X0145843Y0004812D01*
X0145714Y0004738D01*
X0145583Y0004668D01*
X0145451Y0004602D01*
X0145316Y0004539D01*
X0145180Y0004479D01*
X0145043Y0004424D01*
X0144904Y0004372D01*
X0144764Y0004324D01*
X0144622Y0004279D01*
X0144479Y0004239D01*
X0144336Y0004202D01*
X0144191Y0004170D01*
X0144046Y0004141D01*
X0143899Y0004116D01*
X0143753Y0004095D01*
X0143605Y0004078D01*
X0143457Y0004065D01*
X0143309Y0004056D01*
X0143161Y0004051D01*
X0143013Y0004050D01*
X0142865Y0004053D01*
X0142716Y0004060D01*
X0142569Y0004071D01*
X0142421Y0004086D01*
X0142274Y0004105D01*
X0142127Y0004128D01*
X0141982Y0004155D01*
X0141836Y0004186D01*
X0141692Y0004220D01*
X0141549Y0004259D01*
X0141407Y0004301D01*
X0141266Y0004347D01*
X0141126Y0004397D01*
X0140988Y0004451D01*
X0140851Y0004509D01*
X0140716Y0004570D01*
X0140583Y0004634D01*
X0140451Y0004703D01*
X0140321Y0004775D01*
X0140194Y0004850D01*
X0140068Y0004929D01*
X0139944Y0005011D01*
X0139823Y0005096D01*
X0139704Y0005185D01*
X0139588Y0005276D01*
X0139474Y0005371D01*
X0139362Y0005469D01*
X0139254Y0005570D01*
X0139148Y0005674D01*
X0139045Y0005781D01*
X0138945Y0005890D01*
X0138847Y0006002D01*
X0138753Y0006117D01*
X0138662Y0006234D01*
X0138574Y0006353D01*
X0138490Y0006475D01*
X0138409Y0006599D01*
X0138331Y0006725D01*
X0138256Y0006854D01*
X0138185Y0006984D01*
X0138118Y0007116D01*
X0138054Y0007250D01*
X0137994Y0007385D01*
X0137937Y0007523D01*
X0137885Y0007661D01*
X0137835Y0007801D01*
X0137790Y0007942D01*
X0137749Y0008085D01*
X0137711Y0008228D01*
X0137677Y0008373D01*
X0137648Y0008518D01*
X0137622Y0008664D01*
X0137600Y0008811D01*
X0137582Y0008958D01*
X0137568Y0009106D01*
X0137558Y0009254D01*
X0137552Y0009402D01*
X0137550Y0009550D01*
X0003800Y0009550D02*
X0003802Y0009698D01*
X0003808Y0009846D01*
X0003818Y0009994D01*
X0003832Y0010142D01*
X0003850Y0010289D01*
X0003872Y0010436D01*
X0003898Y0010582D01*
X0003927Y0010727D01*
X0003961Y0010872D01*
X0003999Y0011015D01*
X0004040Y0011158D01*
X0004085Y0011299D01*
X0004135Y0011439D01*
X0004187Y0011577D01*
X0004244Y0011715D01*
X0004304Y0011850D01*
X0004368Y0011984D01*
X0004435Y0012116D01*
X0004506Y0012246D01*
X0004581Y0012375D01*
X0004659Y0012501D01*
X0004740Y0012625D01*
X0004824Y0012747D01*
X0004912Y0012866D01*
X0005003Y0012983D01*
X0005097Y0013098D01*
X0005195Y0013210D01*
X0005295Y0013319D01*
X0005398Y0013426D01*
X0005504Y0013530D01*
X0005612Y0013631D01*
X0005724Y0013729D01*
X0005838Y0013824D01*
X0005954Y0013915D01*
X0006073Y0014004D01*
X0006194Y0014089D01*
X0006318Y0014171D01*
X0006444Y0014250D01*
X0006571Y0014325D01*
X0006701Y0014397D01*
X0006833Y0014466D01*
X0006966Y0014530D01*
X0007101Y0014591D01*
X0007238Y0014649D01*
X0007376Y0014703D01*
X0007516Y0014753D01*
X0007657Y0014799D01*
X0007799Y0014841D01*
X0007942Y0014880D01*
X0008086Y0014914D01*
X0008232Y0014945D01*
X0008377Y0014972D01*
X0008524Y0014995D01*
X0008671Y0015014D01*
X0008819Y0015029D01*
X0008966Y0015040D01*
X0009115Y0015047D01*
X0009263Y0015050D01*
X0009411Y0015049D01*
X0009559Y0015044D01*
X0009707Y0015035D01*
X0009855Y0015022D01*
X0010003Y0015005D01*
X0010149Y0014984D01*
X0010296Y0014959D01*
X0010441Y0014930D01*
X0010586Y0014898D01*
X0010729Y0014861D01*
X0010872Y0014821D01*
X0011014Y0014776D01*
X0011154Y0014728D01*
X0011293Y0014676D01*
X0011430Y0014621D01*
X0011566Y0014561D01*
X0011701Y0014498D01*
X0011833Y0014432D01*
X0011964Y0014362D01*
X0012093Y0014288D01*
X0012219Y0014211D01*
X0012344Y0014131D01*
X0012466Y0014047D01*
X0012587Y0013960D01*
X0012704Y0013870D01*
X0012820Y0013776D01*
X0012932Y0013680D01*
X0013042Y0013581D01*
X0013150Y0013478D01*
X0013254Y0013373D01*
X0013356Y0013265D01*
X0013454Y0013154D01*
X0013550Y0013041D01*
X0013643Y0012925D01*
X0013732Y0012807D01*
X0013818Y0012686D01*
X0013901Y0012563D01*
X0013981Y0012438D01*
X0014057Y0012311D01*
X0014130Y0012181D01*
X0014199Y0012050D01*
X0014264Y0011917D01*
X0014327Y0011783D01*
X0014385Y0011646D01*
X0014440Y0011508D01*
X0014490Y0011369D01*
X0014538Y0011228D01*
X0014581Y0011087D01*
X0014621Y0010944D01*
X0014656Y0010800D01*
X0014688Y0010655D01*
X0014716Y0010509D01*
X0014740Y0010363D01*
X0014760Y0010216D01*
X0014776Y0010068D01*
X0014788Y0009921D01*
X0014796Y0009772D01*
X0014800Y0009624D01*
X0014800Y0009476D01*
X0014796Y0009328D01*
X0014788Y0009179D01*
X0014776Y0009032D01*
X0014760Y0008884D01*
X0014740Y0008737D01*
X0014716Y0008591D01*
X0014688Y0008445D01*
X0014656Y0008300D01*
X0014621Y0008156D01*
X0014581Y0008013D01*
X0014538Y0007872D01*
X0014490Y0007731D01*
X0014440Y0007592D01*
X0014385Y0007454D01*
X0014327Y0007317D01*
X0014264Y0007183D01*
X0014199Y0007050D01*
X0014130Y0006919D01*
X0014057Y0006789D01*
X0013981Y0006662D01*
X0013901Y0006537D01*
X0013818Y0006414D01*
X0013732Y0006293D01*
X0013643Y0006175D01*
X0013550Y0006059D01*
X0013454Y0005946D01*
X0013356Y0005835D01*
X0013254Y0005727D01*
X0013150Y0005622D01*
X0013042Y0005519D01*
X0012932Y0005420D01*
X0012820Y0005324D01*
X0012704Y0005230D01*
X0012587Y0005140D01*
X0012466Y0005053D01*
X0012344Y0004969D01*
X0012219Y0004889D01*
X0012093Y0004812D01*
X0011964Y0004738D01*
X0011833Y0004668D01*
X0011701Y0004602D01*
X0011566Y0004539D01*
X0011430Y0004479D01*
X0011293Y0004424D01*
X0011154Y0004372D01*
X0011014Y0004324D01*
X0010872Y0004279D01*
X0010729Y0004239D01*
X0010586Y0004202D01*
X0010441Y0004170D01*
X0010296Y0004141D01*
X0010149Y0004116D01*
X0010003Y0004095D01*
X0009855Y0004078D01*
X0009707Y0004065D01*
X0009559Y0004056D01*
X0009411Y0004051D01*
X0009263Y0004050D01*
X0009115Y0004053D01*
X0008966Y0004060D01*
X0008819Y0004071D01*
X0008671Y0004086D01*
X0008524Y0004105D01*
X0008377Y0004128D01*
X0008232Y0004155D01*
X0008086Y0004186D01*
X0007942Y0004220D01*
X0007799Y0004259D01*
X0007657Y0004301D01*
X0007516Y0004347D01*
X0007376Y0004397D01*
X0007238Y0004451D01*
X0007101Y0004509D01*
X0006966Y0004570D01*
X0006833Y0004634D01*
X0006701Y0004703D01*
X0006571Y0004775D01*
X0006444Y0004850D01*
X0006318Y0004929D01*
X0006194Y0005011D01*
X0006073Y0005096D01*
X0005954Y0005185D01*
X0005838Y0005276D01*
X0005724Y0005371D01*
X0005612Y0005469D01*
X0005504Y0005570D01*
X0005398Y0005674D01*
X0005295Y0005781D01*
X0005195Y0005890D01*
X0005097Y0006002D01*
X0005003Y0006117D01*
X0004912Y0006234D01*
X0004824Y0006353D01*
X0004740Y0006475D01*
X0004659Y0006599D01*
X0004581Y0006725D01*
X0004506Y0006854D01*
X0004435Y0006984D01*
X0004368Y0007116D01*
X0004304Y0007250D01*
X0004244Y0007385D01*
X0004187Y0007523D01*
X0004135Y0007661D01*
X0004085Y0007801D01*
X0004040Y0007942D01*
X0003999Y0008085D01*
X0003961Y0008228D01*
X0003927Y0008373D01*
X0003898Y0008518D01*
X0003872Y0008664D01*
X0003850Y0008811D01*
X0003832Y0008958D01*
X0003818Y0009106D01*
X0003808Y0009254D01*
X0003802Y0009402D01*
X0003800Y0009550D01*
X0003800Y0152050D02*
X0003802Y0152198D01*
X0003808Y0152346D01*
X0003818Y0152494D01*
X0003832Y0152642D01*
X0003850Y0152789D01*
X0003872Y0152936D01*
X0003898Y0153082D01*
X0003927Y0153227D01*
X0003961Y0153372D01*
X0003999Y0153515D01*
X0004040Y0153658D01*
X0004085Y0153799D01*
X0004135Y0153939D01*
X0004187Y0154077D01*
X0004244Y0154215D01*
X0004304Y0154350D01*
X0004368Y0154484D01*
X0004435Y0154616D01*
X0004506Y0154746D01*
X0004581Y0154875D01*
X0004659Y0155001D01*
X0004740Y0155125D01*
X0004824Y0155247D01*
X0004912Y0155366D01*
X0005003Y0155483D01*
X0005097Y0155598D01*
X0005195Y0155710D01*
X0005295Y0155819D01*
X0005398Y0155926D01*
X0005504Y0156030D01*
X0005612Y0156131D01*
X0005724Y0156229D01*
X0005838Y0156324D01*
X0005954Y0156415D01*
X0006073Y0156504D01*
X0006194Y0156589D01*
X0006318Y0156671D01*
X0006444Y0156750D01*
X0006571Y0156825D01*
X0006701Y0156897D01*
X0006833Y0156966D01*
X0006966Y0157030D01*
X0007101Y0157091D01*
X0007238Y0157149D01*
X0007376Y0157203D01*
X0007516Y0157253D01*
X0007657Y0157299D01*
X0007799Y0157341D01*
X0007942Y0157380D01*
X0008086Y0157414D01*
X0008232Y0157445D01*
X0008377Y0157472D01*
X0008524Y0157495D01*
X0008671Y0157514D01*
X0008819Y0157529D01*
X0008966Y0157540D01*
X0009115Y0157547D01*
X0009263Y0157550D01*
X0009411Y0157549D01*
X0009559Y0157544D01*
X0009707Y0157535D01*
X0009855Y0157522D01*
X0010003Y0157505D01*
X0010149Y0157484D01*
X0010296Y0157459D01*
X0010441Y0157430D01*
X0010586Y0157398D01*
X0010729Y0157361D01*
X0010872Y0157321D01*
X0011014Y0157276D01*
X0011154Y0157228D01*
X0011293Y0157176D01*
X0011430Y0157121D01*
X0011566Y0157061D01*
X0011701Y0156998D01*
X0011833Y0156932D01*
X0011964Y0156862D01*
X0012093Y0156788D01*
X0012219Y0156711D01*
X0012344Y0156631D01*
X0012466Y0156547D01*
X0012587Y0156460D01*
X0012704Y0156370D01*
X0012820Y0156276D01*
X0012932Y0156180D01*
X0013042Y0156081D01*
X0013150Y0155978D01*
X0013254Y0155873D01*
X0013356Y0155765D01*
X0013454Y0155654D01*
X0013550Y0155541D01*
X0013643Y0155425D01*
X0013732Y0155307D01*
X0013818Y0155186D01*
X0013901Y0155063D01*
X0013981Y0154938D01*
X0014057Y0154811D01*
X0014130Y0154681D01*
X0014199Y0154550D01*
X0014264Y0154417D01*
X0014327Y0154283D01*
X0014385Y0154146D01*
X0014440Y0154008D01*
X0014490Y0153869D01*
X0014538Y0153728D01*
X0014581Y0153587D01*
X0014621Y0153444D01*
X0014656Y0153300D01*
X0014688Y0153155D01*
X0014716Y0153009D01*
X0014740Y0152863D01*
X0014760Y0152716D01*
X0014776Y0152568D01*
X0014788Y0152421D01*
X0014796Y0152272D01*
X0014800Y0152124D01*
X0014800Y0151976D01*
X0014796Y0151828D01*
X0014788Y0151679D01*
X0014776Y0151532D01*
X0014760Y0151384D01*
X0014740Y0151237D01*
X0014716Y0151091D01*
X0014688Y0150945D01*
X0014656Y0150800D01*
X0014621Y0150656D01*
X0014581Y0150513D01*
X0014538Y0150372D01*
X0014490Y0150231D01*
X0014440Y0150092D01*
X0014385Y0149954D01*
X0014327Y0149817D01*
X0014264Y0149683D01*
X0014199Y0149550D01*
X0014130Y0149419D01*
X0014057Y0149289D01*
X0013981Y0149162D01*
X0013901Y0149037D01*
X0013818Y0148914D01*
X0013732Y0148793D01*
X0013643Y0148675D01*
X0013550Y0148559D01*
X0013454Y0148446D01*
X0013356Y0148335D01*
X0013254Y0148227D01*
X0013150Y0148122D01*
X0013042Y0148019D01*
X0012932Y0147920D01*
X0012820Y0147824D01*
X0012704Y0147730D01*
X0012587Y0147640D01*
X0012466Y0147553D01*
X0012344Y0147469D01*
X0012219Y0147389D01*
X0012093Y0147312D01*
X0011964Y0147238D01*
X0011833Y0147168D01*
X0011701Y0147102D01*
X0011566Y0147039D01*
X0011430Y0146979D01*
X0011293Y0146924D01*
X0011154Y0146872D01*
X0011014Y0146824D01*
X0010872Y0146779D01*
X0010729Y0146739D01*
X0010586Y0146702D01*
X0010441Y0146670D01*
X0010296Y0146641D01*
X0010149Y0146616D01*
X0010003Y0146595D01*
X0009855Y0146578D01*
X0009707Y0146565D01*
X0009559Y0146556D01*
X0009411Y0146551D01*
X0009263Y0146550D01*
X0009115Y0146553D01*
X0008966Y0146560D01*
X0008819Y0146571D01*
X0008671Y0146586D01*
X0008524Y0146605D01*
X0008377Y0146628D01*
X0008232Y0146655D01*
X0008086Y0146686D01*
X0007942Y0146720D01*
X0007799Y0146759D01*
X0007657Y0146801D01*
X0007516Y0146847D01*
X0007376Y0146897D01*
X0007238Y0146951D01*
X0007101Y0147009D01*
X0006966Y0147070D01*
X0006833Y0147134D01*
X0006701Y0147203D01*
X0006571Y0147275D01*
X0006444Y0147350D01*
X0006318Y0147429D01*
X0006194Y0147511D01*
X0006073Y0147596D01*
X0005954Y0147685D01*
X0005838Y0147776D01*
X0005724Y0147871D01*
X0005612Y0147969D01*
X0005504Y0148070D01*
X0005398Y0148174D01*
X0005295Y0148281D01*
X0005195Y0148390D01*
X0005097Y0148502D01*
X0005003Y0148617D01*
X0004912Y0148734D01*
X0004824Y0148853D01*
X0004740Y0148975D01*
X0004659Y0149099D01*
X0004581Y0149225D01*
X0004506Y0149354D01*
X0004435Y0149484D01*
X0004368Y0149616D01*
X0004304Y0149750D01*
X0004244Y0149885D01*
X0004187Y0150023D01*
X0004135Y0150161D01*
X0004085Y0150301D01*
X0004040Y0150442D01*
X0003999Y0150585D01*
X0003961Y0150728D01*
X0003927Y0150873D01*
X0003898Y0151018D01*
X0003872Y0151164D01*
X0003850Y0151311D01*
X0003832Y0151458D01*
X0003818Y0151606D01*
X0003808Y0151754D01*
X0003802Y0151902D01*
X0003800Y0152050D01*
X0138800Y0152050D02*
X0138802Y0152198D01*
X0138808Y0152346D01*
X0138818Y0152494D01*
X0138832Y0152642D01*
X0138850Y0152789D01*
X0138872Y0152936D01*
X0138898Y0153082D01*
X0138927Y0153227D01*
X0138961Y0153372D01*
X0138999Y0153515D01*
X0139040Y0153658D01*
X0139085Y0153799D01*
X0139135Y0153939D01*
X0139187Y0154077D01*
X0139244Y0154215D01*
X0139304Y0154350D01*
X0139368Y0154484D01*
X0139435Y0154616D01*
X0139506Y0154746D01*
X0139581Y0154875D01*
X0139659Y0155001D01*
X0139740Y0155125D01*
X0139824Y0155247D01*
X0139912Y0155366D01*
X0140003Y0155483D01*
X0140097Y0155598D01*
X0140195Y0155710D01*
X0140295Y0155819D01*
X0140398Y0155926D01*
X0140504Y0156030D01*
X0140612Y0156131D01*
X0140724Y0156229D01*
X0140838Y0156324D01*
X0140954Y0156415D01*
X0141073Y0156504D01*
X0141194Y0156589D01*
X0141318Y0156671D01*
X0141444Y0156750D01*
X0141571Y0156825D01*
X0141701Y0156897D01*
X0141833Y0156966D01*
X0141966Y0157030D01*
X0142101Y0157091D01*
X0142238Y0157149D01*
X0142376Y0157203D01*
X0142516Y0157253D01*
X0142657Y0157299D01*
X0142799Y0157341D01*
X0142942Y0157380D01*
X0143086Y0157414D01*
X0143232Y0157445D01*
X0143377Y0157472D01*
X0143524Y0157495D01*
X0143671Y0157514D01*
X0143819Y0157529D01*
X0143966Y0157540D01*
X0144115Y0157547D01*
X0144263Y0157550D01*
X0144411Y0157549D01*
X0144559Y0157544D01*
X0144707Y0157535D01*
X0144855Y0157522D01*
X0145003Y0157505D01*
X0145149Y0157484D01*
X0145296Y0157459D01*
X0145441Y0157430D01*
X0145586Y0157398D01*
X0145729Y0157361D01*
X0145872Y0157321D01*
X0146014Y0157276D01*
X0146154Y0157228D01*
X0146293Y0157176D01*
X0146430Y0157121D01*
X0146566Y0157061D01*
X0146701Y0156998D01*
X0146833Y0156932D01*
X0146964Y0156862D01*
X0147093Y0156788D01*
X0147219Y0156711D01*
X0147344Y0156631D01*
X0147466Y0156547D01*
X0147587Y0156460D01*
X0147704Y0156370D01*
X0147820Y0156276D01*
X0147932Y0156180D01*
X0148042Y0156081D01*
X0148150Y0155978D01*
X0148254Y0155873D01*
X0148356Y0155765D01*
X0148454Y0155654D01*
X0148550Y0155541D01*
X0148643Y0155425D01*
X0148732Y0155307D01*
X0148818Y0155186D01*
X0148901Y0155063D01*
X0148981Y0154938D01*
X0149057Y0154811D01*
X0149130Y0154681D01*
X0149199Y0154550D01*
X0149264Y0154417D01*
X0149327Y0154283D01*
X0149385Y0154146D01*
X0149440Y0154008D01*
X0149490Y0153869D01*
X0149538Y0153728D01*
X0149581Y0153587D01*
X0149621Y0153444D01*
X0149656Y0153300D01*
X0149688Y0153155D01*
X0149716Y0153009D01*
X0149740Y0152863D01*
X0149760Y0152716D01*
X0149776Y0152568D01*
X0149788Y0152421D01*
X0149796Y0152272D01*
X0149800Y0152124D01*
X0149800Y0151976D01*
X0149796Y0151828D01*
X0149788Y0151679D01*
X0149776Y0151532D01*
X0149760Y0151384D01*
X0149740Y0151237D01*
X0149716Y0151091D01*
X0149688Y0150945D01*
X0149656Y0150800D01*
X0149621Y0150656D01*
X0149581Y0150513D01*
X0149538Y0150372D01*
X0149490Y0150231D01*
X0149440Y0150092D01*
X0149385Y0149954D01*
X0149327Y0149817D01*
X0149264Y0149683D01*
X0149199Y0149550D01*
X0149130Y0149419D01*
X0149057Y0149289D01*
X0148981Y0149162D01*
X0148901Y0149037D01*
X0148818Y0148914D01*
X0148732Y0148793D01*
X0148643Y0148675D01*
X0148550Y0148559D01*
X0148454Y0148446D01*
X0148356Y0148335D01*
X0148254Y0148227D01*
X0148150Y0148122D01*
X0148042Y0148019D01*
X0147932Y0147920D01*
X0147820Y0147824D01*
X0147704Y0147730D01*
X0147587Y0147640D01*
X0147466Y0147553D01*
X0147344Y0147469D01*
X0147219Y0147389D01*
X0147093Y0147312D01*
X0146964Y0147238D01*
X0146833Y0147168D01*
X0146701Y0147102D01*
X0146566Y0147039D01*
X0146430Y0146979D01*
X0146293Y0146924D01*
X0146154Y0146872D01*
X0146014Y0146824D01*
X0145872Y0146779D01*
X0145729Y0146739D01*
X0145586Y0146702D01*
X0145441Y0146670D01*
X0145296Y0146641D01*
X0145149Y0146616D01*
X0145003Y0146595D01*
X0144855Y0146578D01*
X0144707Y0146565D01*
X0144559Y0146556D01*
X0144411Y0146551D01*
X0144263Y0146550D01*
X0144115Y0146553D01*
X0143966Y0146560D01*
X0143819Y0146571D01*
X0143671Y0146586D01*
X0143524Y0146605D01*
X0143377Y0146628D01*
X0143232Y0146655D01*
X0143086Y0146686D01*
X0142942Y0146720D01*
X0142799Y0146759D01*
X0142657Y0146801D01*
X0142516Y0146847D01*
X0142376Y0146897D01*
X0142238Y0146951D01*
X0142101Y0147009D01*
X0141966Y0147070D01*
X0141833Y0147134D01*
X0141701Y0147203D01*
X0141571Y0147275D01*
X0141444Y0147350D01*
X0141318Y0147429D01*
X0141194Y0147511D01*
X0141073Y0147596D01*
X0140954Y0147685D01*
X0140838Y0147776D01*
X0140724Y0147871D01*
X0140612Y0147969D01*
X0140504Y0148070D01*
X0140398Y0148174D01*
X0140295Y0148281D01*
X0140195Y0148390D01*
X0140097Y0148502D01*
X0140003Y0148617D01*
X0139912Y0148734D01*
X0139824Y0148853D01*
X0139740Y0148975D01*
X0139659Y0149099D01*
X0139581Y0149225D01*
X0139506Y0149354D01*
X0139435Y0149484D01*
X0139368Y0149616D01*
X0139304Y0149750D01*
X0139244Y0149885D01*
X0139187Y0150023D01*
X0139135Y0150161D01*
X0139085Y0150301D01*
X0139040Y0150442D01*
X0138999Y0150585D01*
X0138961Y0150728D01*
X0138927Y0150873D01*
X0138898Y0151018D01*
X0138872Y0151164D01*
X0138850Y0151311D01*
X0138832Y0151458D01*
X0138818Y0151606D01*
X0138808Y0151754D01*
X0138802Y0151902D01*
X0138800Y0152050D01*
D12*
X0001800Y0159550D02*
X0001800Y0002050D01*
X0151800Y0002050D02*
X0151800Y0159550D01*
X0001800Y0159550D01*
M02*
