G75*
%MOIN*%
%OFA0B0*%
%FSLAX25Y25*%
%IPPOS*%
%LPD*%
%AMOC8*
5,1,8,0,0,1.08239X$1,22.5*
%
%ADD10OC8,0.06300*%
%ADD11C,0.05200*%
%ADD12OC8,0.06000*%
%ADD13C,0.05200*%
%ADD14C,0.06000*%
%ADD15C,0.01600*%
%ADD16C,0.01000*%
D10*
X0123050Y0068300D03*
X0133050Y0068300D03*
X0133050Y0134550D03*
X0123050Y0134550D03*
D11*
X0123050Y0110300D03*
X0123050Y0091300D03*
D12*
X0114300Y0013300D03*
X0030550Y0107050D03*
X0020550Y0107050D03*
D13*
X0064200Y0105800D02*
X0069400Y0105800D01*
X0069400Y0095800D02*
X0064200Y0095800D01*
X0064200Y0085800D02*
X0069400Y0085800D01*
X0069400Y0075800D02*
X0064200Y0075800D01*
X0064200Y0065800D02*
X0069400Y0065800D01*
X0069400Y0055800D02*
X0064200Y0055800D01*
X0064200Y0045800D02*
X0069400Y0045800D01*
X0069400Y0035800D02*
X0064200Y0035800D01*
X0064200Y0025800D02*
X0069400Y0025800D01*
X0069400Y0015800D02*
X0064200Y0015800D01*
X0094200Y0015800D02*
X0099400Y0015800D01*
X0099400Y0025800D02*
X0094200Y0025800D01*
X0094200Y0035800D02*
X0099400Y0035800D01*
X0099400Y0045800D02*
X0094200Y0045800D01*
X0094200Y0055800D02*
X0099400Y0055800D01*
X0099400Y0065800D02*
X0094200Y0065800D01*
X0094200Y0075800D02*
X0099400Y0075800D01*
X0099400Y0085800D02*
X0094200Y0085800D01*
X0094200Y0095800D02*
X0099400Y0095800D01*
X0099400Y0105800D02*
X0094200Y0105800D01*
X0094200Y0115800D02*
X0099400Y0115800D01*
X0099400Y0125800D02*
X0094200Y0125800D01*
X0094200Y0135800D02*
X0099400Y0135800D01*
X0099400Y0145800D02*
X0094200Y0145800D01*
X0069400Y0145800D02*
X0064200Y0145800D01*
X0064200Y0135800D02*
X0069400Y0135800D01*
X0069400Y0125800D02*
X0064200Y0125800D01*
X0064200Y0115800D02*
X0069400Y0115800D01*
D14*
X0040550Y0127800D02*
X0040550Y0133800D01*
X0030550Y0133800D02*
X0030550Y0127800D01*
X0020550Y0127800D02*
X0020550Y0133800D01*
X0021800Y0072550D02*
X0021800Y0066550D01*
X0031800Y0066550D02*
X0031800Y0072550D01*
X0031800Y0048800D02*
X0031800Y0042800D01*
X0021800Y0042800D02*
X0021800Y0048800D01*
X0041800Y0048800D02*
X0041800Y0042800D01*
X0041800Y0026300D02*
X0041800Y0020300D01*
X0031800Y0020300D02*
X0031800Y0026300D01*
X0021800Y0026300D02*
X0021800Y0020300D01*
X0111000Y0030650D02*
X0117000Y0030650D01*
X0117000Y0048450D02*
X0111000Y0048450D01*
X0136600Y0048450D02*
X0142600Y0048450D01*
X0142600Y0030650D02*
X0136600Y0030650D01*
D15*
X0013276Y0019148D02*
X0010656Y0019850D01*
X0007944Y0019850D01*
X0007400Y0019704D01*
X0007400Y0141896D01*
X0007944Y0141750D01*
X0010656Y0141750D01*
X0013276Y0142452D01*
X0015624Y0143808D01*
X0017542Y0145726D01*
X0018898Y0148074D01*
X0019600Y0150694D01*
X0019600Y0153406D01*
X0019454Y0153950D01*
X0134146Y0153950D01*
X0134000Y0153406D01*
X0134000Y0150694D01*
X0134702Y0148074D01*
X0136058Y0145726D01*
X0137976Y0143808D01*
X0140324Y0142452D01*
X0142944Y0141750D01*
X0145656Y0141750D01*
X0146200Y0141896D01*
X0146200Y0054536D01*
X0143992Y0055450D01*
X0135208Y0055450D01*
X0132635Y0054384D01*
X0130666Y0052415D01*
X0129600Y0049842D01*
X0129600Y0047058D01*
X0130666Y0044485D01*
X0132635Y0042516D01*
X0135208Y0041450D01*
X0143992Y0041450D01*
X0146200Y0042364D01*
X0146200Y0036736D01*
X0143992Y0037650D01*
X0135208Y0037650D01*
X0132635Y0036584D01*
X0130666Y0034615D01*
X0129600Y0032042D01*
X0129600Y0029258D01*
X0130666Y0026685D01*
X0132635Y0024716D01*
X0135208Y0023650D01*
X0143992Y0023650D01*
X0146200Y0024564D01*
X0146200Y0019369D01*
X0144406Y0019850D01*
X0141694Y0019850D01*
X0139074Y0019148D01*
X0136726Y0017792D01*
X0134808Y0015874D01*
X0133452Y0013526D01*
X0132750Y0010906D01*
X0132750Y0008194D01*
X0132949Y0007450D01*
X0118349Y0007450D01*
X0121300Y0010401D01*
X0121300Y0016199D01*
X0117199Y0020300D01*
X0111401Y0020300D01*
X0107300Y0016199D01*
X0107300Y0010401D01*
X0110251Y0007450D01*
X0019401Y0007450D01*
X0019600Y0008194D01*
X0019600Y0010906D01*
X0018898Y0013526D01*
X0018595Y0014051D01*
X0020408Y0013300D01*
X0023192Y0013300D01*
X0025765Y0014366D01*
X0027734Y0016335D01*
X0028102Y0017223D01*
X0028139Y0017173D01*
X0028673Y0016639D01*
X0029284Y0016195D01*
X0029957Y0015852D01*
X0030676Y0015618D01*
X0031422Y0015500D01*
X0031600Y0015500D01*
X0031600Y0023100D01*
X0032000Y0023100D01*
X0032000Y0015500D01*
X0032178Y0015500D01*
X0032924Y0015618D01*
X0033643Y0015852D01*
X0034316Y0016195D01*
X0034927Y0016639D01*
X0035461Y0017173D01*
X0035498Y0017223D01*
X0035866Y0016335D01*
X0037835Y0014366D01*
X0040408Y0013300D01*
X0043192Y0013300D01*
X0045765Y0014366D01*
X0047734Y0016335D01*
X0048800Y0018908D01*
X0048800Y0027692D01*
X0047734Y0030265D01*
X0045765Y0032234D01*
X0043192Y0033300D01*
X0040408Y0033300D01*
X0037835Y0032234D01*
X0035866Y0030265D01*
X0035498Y0029377D01*
X0035461Y0029427D01*
X0034927Y0029961D01*
X0034316Y0030405D01*
X0033643Y0030748D01*
X0032924Y0030982D01*
X0032178Y0031100D01*
X0032000Y0031100D01*
X0032000Y0023500D01*
X0031600Y0023500D01*
X0031600Y0031100D01*
X0031422Y0031100D01*
X0030676Y0030982D01*
X0029957Y0030748D01*
X0029284Y0030405D01*
X0028673Y0029961D01*
X0028139Y0029427D01*
X0028102Y0029377D01*
X0027734Y0030265D01*
X0025765Y0032234D01*
X0023192Y0033300D01*
X0020408Y0033300D01*
X0017835Y0032234D01*
X0015866Y0030265D01*
X0014800Y0027692D01*
X0014800Y0018908D01*
X0015148Y0018067D01*
X0013276Y0019148D01*
X0014800Y0019634D02*
X0011463Y0019634D01*
X0014800Y0021232D02*
X0007400Y0021232D01*
X0007400Y0022831D02*
X0014800Y0022831D01*
X0014800Y0024429D02*
X0007400Y0024429D01*
X0007400Y0026028D02*
X0014800Y0026028D01*
X0014800Y0027626D02*
X0007400Y0027626D01*
X0007400Y0029225D02*
X0015435Y0029225D01*
X0016424Y0030823D02*
X0007400Y0030823D01*
X0007400Y0032422D02*
X0018287Y0032422D01*
X0020408Y0035800D02*
X0017835Y0036866D01*
X0015866Y0038835D01*
X0014800Y0041408D01*
X0014800Y0050192D01*
X0015866Y0052765D01*
X0017835Y0054734D01*
X0020408Y0055800D01*
X0023192Y0055800D01*
X0025765Y0054734D01*
X0026800Y0053699D01*
X0027835Y0054734D01*
X0030408Y0055800D01*
X0033192Y0055800D01*
X0035765Y0054734D01*
X0037734Y0052765D01*
X0038102Y0051877D01*
X0038139Y0051927D01*
X0038673Y0052461D01*
X0039284Y0052905D01*
X0039957Y0053248D01*
X0040676Y0053482D01*
X0041422Y0053600D01*
X0041600Y0053600D01*
X0041600Y0046000D01*
X0042000Y0046000D01*
X0046600Y0046000D01*
X0046600Y0049178D01*
X0046482Y0049924D01*
X0046248Y0050643D01*
X0045905Y0051316D01*
X0045461Y0051927D01*
X0044927Y0052461D01*
X0044316Y0052905D01*
X0043643Y0053248D01*
X0042924Y0053482D01*
X0042178Y0053600D01*
X0042000Y0053600D01*
X0042000Y0046000D01*
X0042000Y0045600D01*
X0046600Y0045600D01*
X0046600Y0042422D01*
X0046482Y0041676D01*
X0046248Y0040957D01*
X0045905Y0040284D01*
X0045461Y0039673D01*
X0044927Y0039139D01*
X0044316Y0038695D01*
X0043643Y0038352D01*
X0042924Y0038118D01*
X0042178Y0038000D01*
X0042000Y0038000D01*
X0042000Y0045600D01*
X0041600Y0045600D01*
X0041600Y0038000D01*
X0041422Y0038000D01*
X0040676Y0038118D01*
X0039957Y0038352D01*
X0039284Y0038695D01*
X0038673Y0039139D01*
X0038139Y0039673D01*
X0038102Y0039723D01*
X0037734Y0038835D01*
X0035765Y0036866D01*
X0033192Y0035800D01*
X0030408Y0035800D01*
X0027835Y0036866D01*
X0026800Y0037901D01*
X0025765Y0036866D01*
X0023192Y0035800D01*
X0020408Y0035800D01*
X0017483Y0037217D02*
X0007400Y0037217D01*
X0007400Y0035619D02*
X0057600Y0035619D01*
X0057600Y0034487D02*
X0058605Y0032061D01*
X0059866Y0030800D01*
X0058605Y0029539D01*
X0057600Y0027113D01*
X0057600Y0024487D01*
X0058605Y0022061D01*
X0059866Y0020800D01*
X0058605Y0019539D01*
X0057600Y0017113D01*
X0057600Y0014487D01*
X0058605Y0012061D01*
X0060461Y0010205D01*
X0062887Y0009200D01*
X0070713Y0009200D01*
X0073139Y0010205D01*
X0074995Y0012061D01*
X0076000Y0014487D01*
X0076000Y0017113D01*
X0074995Y0019539D01*
X0073734Y0020800D01*
X0074995Y0022061D01*
X0076000Y0024487D01*
X0076000Y0027113D01*
X0074995Y0029539D01*
X0073734Y0030800D01*
X0074995Y0032061D01*
X0076000Y0034487D01*
X0076000Y0037113D01*
X0074995Y0039539D01*
X0073734Y0040800D01*
X0074995Y0042061D01*
X0076000Y0044487D01*
X0076000Y0047113D01*
X0074995Y0049539D01*
X0073734Y0050800D01*
X0074995Y0052061D01*
X0076000Y0054487D01*
X0076000Y0057113D01*
X0074995Y0059539D01*
X0073734Y0060800D01*
X0074995Y0062061D01*
X0076000Y0064487D01*
X0076000Y0067113D01*
X0074995Y0069539D01*
X0073139Y0071395D01*
X0071654Y0072010D01*
X0071706Y0072037D01*
X0072266Y0072444D01*
X0072756Y0072934D01*
X0073163Y0073494D01*
X0073478Y0074111D01*
X0073692Y0074770D01*
X0073800Y0075454D01*
X0073800Y0075800D01*
X0073800Y0076146D01*
X0073692Y0076830D01*
X0073478Y0077489D01*
X0073163Y0078106D01*
X0072756Y0078666D01*
X0072266Y0079156D01*
X0071706Y0079563D01*
X0071654Y0079590D01*
X0073139Y0080205D01*
X0074995Y0082061D01*
X0076000Y0084487D01*
X0076000Y0087113D01*
X0074995Y0089539D01*
X0073734Y0090800D01*
X0074995Y0092061D01*
X0076000Y0094487D01*
X0076000Y0097113D01*
X0074995Y0099539D01*
X0073734Y0100800D01*
X0074995Y0102061D01*
X0076000Y0104487D01*
X0076000Y0107113D01*
X0074995Y0109539D01*
X0073734Y0110800D01*
X0074995Y0112061D01*
X0076000Y0114487D01*
X0076000Y0117113D01*
X0074995Y0119539D01*
X0073734Y0120800D01*
X0074995Y0122061D01*
X0076000Y0124487D01*
X0076000Y0127113D01*
X0074995Y0129539D01*
X0073734Y0130800D01*
X0074995Y0132061D01*
X0076000Y0134487D01*
X0076000Y0137113D01*
X0074995Y0139539D01*
X0073734Y0140800D01*
X0074995Y0142061D01*
X0076000Y0144487D01*
X0076000Y0147113D01*
X0074995Y0149539D01*
X0073139Y0151395D01*
X0070713Y0152400D01*
X0062887Y0152400D01*
X0060461Y0151395D01*
X0058605Y0149539D01*
X0057600Y0147113D01*
X0057600Y0144487D01*
X0058605Y0142061D01*
X0059866Y0140800D01*
X0058605Y0139539D01*
X0057600Y0137113D01*
X0057600Y0134487D01*
X0058605Y0132061D01*
X0059866Y0130800D01*
X0058605Y0129539D01*
X0057600Y0127113D01*
X0057600Y0124487D01*
X0058605Y0122061D01*
X0059866Y0120800D01*
X0058605Y0119539D01*
X0057600Y0117113D01*
X0057600Y0114487D01*
X0058605Y0112061D01*
X0059866Y0110800D01*
X0058605Y0109539D01*
X0057600Y0107113D01*
X0057600Y0104487D01*
X0058605Y0102061D01*
X0059866Y0100800D01*
X0058605Y0099539D01*
X0057600Y0097113D01*
X0057600Y0094487D01*
X0058605Y0092061D01*
X0059866Y0090800D01*
X0058605Y0089539D01*
X0057600Y0087113D01*
X0057600Y0084487D01*
X0058605Y0082061D01*
X0060461Y0080205D01*
X0061946Y0079590D01*
X0061894Y0079563D01*
X0061334Y0079156D01*
X0060844Y0078666D01*
X0060437Y0078106D01*
X0060122Y0077489D01*
X0059908Y0076830D01*
X0059800Y0076146D01*
X0059800Y0075800D01*
X0066800Y0075800D01*
X0073800Y0075800D01*
X0066800Y0075800D01*
X0066800Y0075800D01*
X0066800Y0075800D01*
X0059800Y0075800D01*
X0059800Y0075454D01*
X0059908Y0074770D01*
X0060122Y0074111D01*
X0060437Y0073494D01*
X0060844Y0072934D01*
X0061334Y0072444D01*
X0061894Y0072037D01*
X0061946Y0072010D01*
X0060461Y0071395D01*
X0058605Y0069539D01*
X0057600Y0067113D01*
X0057600Y0064487D01*
X0058605Y0062061D01*
X0059866Y0060800D01*
X0059616Y0060550D01*
X0059464Y0060550D01*
X0047915Y0072099D01*
X0046649Y0073365D01*
X0044995Y0074050D01*
X0038755Y0074050D01*
X0037734Y0076515D01*
X0035765Y0078484D01*
X0033192Y0079550D01*
X0030408Y0079550D01*
X0027835Y0078484D01*
X0025866Y0076515D01*
X0025498Y0075627D01*
X0025461Y0075677D01*
X0024927Y0076211D01*
X0024316Y0076655D01*
X0023643Y0076998D01*
X0022924Y0077232D01*
X0022178Y0077350D01*
X0022000Y0077350D01*
X0022000Y0069750D01*
X0021600Y0069750D01*
X0021600Y0077350D01*
X0021422Y0077350D01*
X0020676Y0077232D01*
X0019957Y0076998D01*
X0019284Y0076655D01*
X0018673Y0076211D01*
X0018139Y0075677D01*
X0017695Y0075066D01*
X0017352Y0074393D01*
X0017118Y0073674D01*
X0017000Y0072928D01*
X0017000Y0069750D01*
X0021600Y0069750D01*
X0021600Y0069350D01*
X0022000Y0069350D01*
X0022000Y0061750D01*
X0022178Y0061750D01*
X0022924Y0061868D01*
X0023643Y0062102D01*
X0024316Y0062445D01*
X0024927Y0062889D01*
X0025461Y0063423D01*
X0025498Y0063473D01*
X0025866Y0062585D01*
X0027835Y0060616D01*
X0030408Y0059550D01*
X0033192Y0059550D01*
X0035765Y0060616D01*
X0037734Y0062585D01*
X0038755Y0065050D01*
X0042236Y0065050D01*
X0055051Y0052235D01*
X0056705Y0051550D01*
X0059116Y0051550D01*
X0059866Y0050800D01*
X0058605Y0049539D01*
X0057600Y0047113D01*
X0057600Y0044487D01*
X0058605Y0042061D01*
X0059866Y0040800D01*
X0058605Y0039539D01*
X0057600Y0037113D01*
X0057600Y0034487D01*
X0057793Y0034020D02*
X0007400Y0034020D01*
X0007400Y0038816D02*
X0015885Y0038816D01*
X0015211Y0040414D02*
X0007400Y0040414D01*
X0007400Y0042013D02*
X0014800Y0042013D01*
X0014800Y0043611D02*
X0007400Y0043611D01*
X0007400Y0045210D02*
X0014800Y0045210D01*
X0014800Y0046808D02*
X0007400Y0046808D01*
X0007400Y0048407D02*
X0014800Y0048407D01*
X0014800Y0050005D02*
X0007400Y0050005D01*
X0007400Y0051604D02*
X0015385Y0051604D01*
X0016303Y0053202D02*
X0007400Y0053202D01*
X0007400Y0054801D02*
X0017996Y0054801D01*
X0020676Y0061868D02*
X0019957Y0062102D01*
X0019284Y0062445D01*
X0018673Y0062889D01*
X0018139Y0063423D01*
X0017695Y0064034D01*
X0017352Y0064707D01*
X0017118Y0065426D01*
X0017000Y0066172D01*
X0017000Y0069350D01*
X0021600Y0069350D01*
X0021600Y0061750D01*
X0021422Y0061750D01*
X0020676Y0061868D01*
X0021600Y0062793D02*
X0022000Y0062793D01*
X0022000Y0064392D02*
X0021600Y0064392D01*
X0021600Y0065990D02*
X0022000Y0065990D01*
X0022000Y0067589D02*
X0021600Y0067589D01*
X0021600Y0069187D02*
X0022000Y0069187D01*
X0022000Y0070786D02*
X0021600Y0070786D01*
X0021600Y0072384D02*
X0022000Y0072384D01*
X0022000Y0073983D02*
X0021600Y0073983D01*
X0021600Y0075582D02*
X0022000Y0075582D01*
X0022000Y0077180D02*
X0021600Y0077180D01*
X0020517Y0077180D02*
X0007400Y0077180D01*
X0007400Y0075582D02*
X0018069Y0075582D01*
X0017219Y0073983D02*
X0007400Y0073983D01*
X0007400Y0072384D02*
X0017000Y0072384D01*
X0017000Y0070786D02*
X0007400Y0070786D01*
X0007400Y0069187D02*
X0017000Y0069187D01*
X0017000Y0067589D02*
X0007400Y0067589D01*
X0007400Y0065990D02*
X0017029Y0065990D01*
X0017512Y0064392D02*
X0007400Y0064392D01*
X0007400Y0062793D02*
X0018804Y0062793D01*
X0024796Y0062793D02*
X0025779Y0062793D01*
X0027256Y0061195D02*
X0007400Y0061195D01*
X0007400Y0059596D02*
X0030296Y0059596D01*
X0033304Y0059596D02*
X0047690Y0059596D01*
X0049288Y0057998D02*
X0007400Y0057998D01*
X0007400Y0056399D02*
X0050887Y0056399D01*
X0052485Y0054801D02*
X0035604Y0054801D01*
X0037297Y0053202D02*
X0039867Y0053202D01*
X0041600Y0053202D02*
X0042000Y0053202D01*
X0042000Y0051604D02*
X0041600Y0051604D01*
X0041600Y0050005D02*
X0042000Y0050005D01*
X0042000Y0048407D02*
X0041600Y0048407D01*
X0041600Y0046808D02*
X0042000Y0046808D01*
X0042000Y0045210D02*
X0041600Y0045210D01*
X0041600Y0043611D02*
X0042000Y0043611D01*
X0042000Y0042013D02*
X0041600Y0042013D01*
X0041600Y0040414D02*
X0042000Y0040414D01*
X0042000Y0038816D02*
X0041600Y0038816D01*
X0044482Y0038816D02*
X0058305Y0038816D01*
X0057643Y0037217D02*
X0036117Y0037217D01*
X0037715Y0038816D02*
X0039118Y0038816D01*
X0038287Y0032422D02*
X0025313Y0032422D01*
X0027176Y0030823D02*
X0030188Y0030823D01*
X0031600Y0030823D02*
X0032000Y0030823D01*
X0033412Y0030823D02*
X0036424Y0030823D01*
X0032000Y0029225D02*
X0031600Y0029225D01*
X0031600Y0027626D02*
X0032000Y0027626D01*
X0032000Y0026028D02*
X0031600Y0026028D01*
X0031600Y0024429D02*
X0032000Y0024429D01*
X0032000Y0022831D02*
X0031600Y0022831D01*
X0031600Y0021232D02*
X0032000Y0021232D01*
X0032000Y0019634D02*
X0031600Y0019634D01*
X0031600Y0018035D02*
X0032000Y0018035D01*
X0032000Y0016437D02*
X0031600Y0016437D01*
X0028951Y0016437D02*
X0027776Y0016437D01*
X0026238Y0014838D02*
X0037362Y0014838D01*
X0035824Y0016437D02*
X0034649Y0016437D01*
X0046238Y0014838D02*
X0057600Y0014838D01*
X0057600Y0016437D02*
X0047776Y0016437D01*
X0048439Y0018035D02*
X0057982Y0018035D01*
X0058700Y0019634D02*
X0048800Y0019634D01*
X0048800Y0021232D02*
X0059434Y0021232D01*
X0058286Y0022831D02*
X0048800Y0022831D01*
X0048800Y0024429D02*
X0057624Y0024429D01*
X0057600Y0026028D02*
X0048800Y0026028D01*
X0048800Y0027626D02*
X0057813Y0027626D01*
X0058475Y0029225D02*
X0048165Y0029225D01*
X0047176Y0030823D02*
X0059843Y0030823D01*
X0058456Y0032422D02*
X0045313Y0032422D01*
X0045972Y0040414D02*
X0059480Y0040414D01*
X0058653Y0042013D02*
X0046535Y0042013D01*
X0046600Y0043611D02*
X0057963Y0043611D01*
X0057600Y0045210D02*
X0046600Y0045210D01*
X0046600Y0046808D02*
X0057600Y0046808D01*
X0058136Y0048407D02*
X0046600Y0048407D01*
X0046455Y0050005D02*
X0059072Y0050005D01*
X0056575Y0051604D02*
X0045696Y0051604D01*
X0043733Y0053202D02*
X0054084Y0053202D01*
X0058819Y0061195D02*
X0059471Y0061195D01*
X0058302Y0062793D02*
X0057221Y0062793D01*
X0057639Y0064392D02*
X0055622Y0064392D01*
X0054023Y0065990D02*
X0057600Y0065990D01*
X0057797Y0067589D02*
X0052425Y0067589D01*
X0050826Y0069187D02*
X0058459Y0069187D01*
X0059852Y0070786D02*
X0049228Y0070786D01*
X0047629Y0072384D02*
X0061415Y0072384D01*
X0060188Y0073983D02*
X0045157Y0073983D01*
X0038121Y0075582D02*
X0059800Y0075582D01*
X0060022Y0077180D02*
X0037069Y0077180D01*
X0035055Y0078779D02*
X0060956Y0078779D01*
X0060289Y0080377D02*
X0007400Y0080377D01*
X0007400Y0078779D02*
X0028545Y0078779D01*
X0026531Y0077180D02*
X0023083Y0077180D01*
X0037821Y0062793D02*
X0044493Y0062793D01*
X0042894Y0064392D02*
X0038483Y0064392D01*
X0036344Y0061195D02*
X0046091Y0061195D01*
X0027996Y0054801D02*
X0025604Y0054801D01*
X0026117Y0037217D02*
X0027483Y0037217D01*
X0018975Y0013240D02*
X0058117Y0013240D01*
X0059025Y0011641D02*
X0019403Y0011641D01*
X0019600Y0010043D02*
X0060853Y0010043D01*
X0072747Y0010043D02*
X0090853Y0010043D01*
X0090461Y0010205D02*
X0092887Y0009200D01*
X0100713Y0009200D01*
X0103139Y0010205D01*
X0104995Y0012061D01*
X0106000Y0014487D01*
X0106000Y0017113D01*
X0104995Y0019539D01*
X0103734Y0020800D01*
X0104995Y0022061D01*
X0106000Y0024487D01*
X0106000Y0025751D01*
X0107035Y0024716D01*
X0109608Y0023650D01*
X0118392Y0023650D01*
X0120965Y0024716D01*
X0122934Y0026685D01*
X0124000Y0029258D01*
X0124000Y0032042D01*
X0122934Y0034615D01*
X0120965Y0036584D01*
X0118392Y0037650D01*
X0109608Y0037650D01*
X0107035Y0036584D01*
X0106000Y0035549D01*
X0106000Y0037113D01*
X0104995Y0039539D01*
X0103734Y0040800D01*
X0104995Y0042061D01*
X0106000Y0044487D01*
X0106000Y0047113D01*
X0104995Y0049539D01*
X0103734Y0050800D01*
X0104995Y0052061D01*
X0106000Y0054487D01*
X0106000Y0057113D01*
X0104995Y0059539D01*
X0103734Y0060800D01*
X0104995Y0062061D01*
X0106000Y0064487D01*
X0106000Y0067113D01*
X0104995Y0069539D01*
X0103734Y0070800D01*
X0104995Y0072061D01*
X0106000Y0074487D01*
X0106000Y0077113D01*
X0104995Y0079539D01*
X0103139Y0081395D01*
X0101654Y0082010D01*
X0101706Y0082037D01*
X0102266Y0082444D01*
X0102756Y0082934D01*
X0103163Y0083494D01*
X0103478Y0084111D01*
X0103692Y0084770D01*
X0103800Y0085454D01*
X0103800Y0085800D01*
X0103800Y0086146D01*
X0103692Y0086830D01*
X0103478Y0087489D01*
X0103163Y0088106D01*
X0102756Y0088666D01*
X0102266Y0089156D01*
X0101706Y0089563D01*
X0101654Y0089590D01*
X0103139Y0090205D01*
X0104995Y0092061D01*
X0106000Y0094487D01*
X0106000Y0097113D01*
X0104995Y0099539D01*
X0103734Y0100800D01*
X0104995Y0102061D01*
X0106000Y0104487D01*
X0106000Y0107113D01*
X0104995Y0109539D01*
X0103734Y0110800D01*
X0104995Y0112061D01*
X0106000Y0114487D01*
X0106000Y0117113D01*
X0104995Y0119539D01*
X0103734Y0120800D01*
X0104995Y0122061D01*
X0106000Y0124487D01*
X0106000Y0127113D01*
X0104995Y0129539D01*
X0103734Y0130800D01*
X0104995Y0132061D01*
X0106000Y0134487D01*
X0106000Y0137113D01*
X0104995Y0139539D01*
X0103734Y0140800D01*
X0104995Y0142061D01*
X0106000Y0144487D01*
X0106000Y0147113D01*
X0104995Y0149539D01*
X0103139Y0151395D01*
X0100713Y0152400D01*
X0092887Y0152400D01*
X0090461Y0151395D01*
X0088605Y0149539D01*
X0087600Y0147113D01*
X0087600Y0144487D01*
X0088605Y0142061D01*
X0089866Y0140800D01*
X0088605Y0139539D01*
X0087600Y0137113D01*
X0087600Y0134487D01*
X0088605Y0132061D01*
X0089866Y0130800D01*
X0088605Y0129539D01*
X0087600Y0127113D01*
X0087600Y0124487D01*
X0088605Y0122061D01*
X0089866Y0120800D01*
X0088605Y0119539D01*
X0087600Y0117113D01*
X0087600Y0114487D01*
X0088605Y0112061D01*
X0089866Y0110800D01*
X0088605Y0109539D01*
X0087600Y0107113D01*
X0087600Y0104487D01*
X0088605Y0102061D01*
X0089866Y0100800D01*
X0088605Y0099539D01*
X0087600Y0097113D01*
X0087600Y0094487D01*
X0088605Y0092061D01*
X0090461Y0090205D01*
X0091946Y0089590D01*
X0091894Y0089563D01*
X0091334Y0089156D01*
X0090844Y0088666D01*
X0090437Y0088106D01*
X0090122Y0087489D01*
X0089908Y0086830D01*
X0089800Y0086146D01*
X0089800Y0085800D01*
X0096800Y0085800D01*
X0103800Y0085800D01*
X0096800Y0085800D01*
X0096800Y0085800D01*
X0096800Y0085800D01*
X0089800Y0085800D01*
X0089800Y0085454D01*
X0089908Y0084770D01*
X0090122Y0084111D01*
X0090437Y0083494D01*
X0090844Y0082934D01*
X0091334Y0082444D01*
X0091894Y0082037D01*
X0091946Y0082010D01*
X0090461Y0081395D01*
X0088605Y0079539D01*
X0087600Y0077113D01*
X0087600Y0074487D01*
X0088605Y0072061D01*
X0089866Y0070800D01*
X0088605Y0069539D01*
X0087600Y0067113D01*
X0087600Y0064487D01*
X0088605Y0062061D01*
X0089866Y0060800D01*
X0088605Y0059539D01*
X0087600Y0057113D01*
X0087600Y0054487D01*
X0088605Y0052061D01*
X0089866Y0050800D01*
X0088605Y0049539D01*
X0087600Y0047113D01*
X0087600Y0044487D01*
X0088605Y0042061D01*
X0089866Y0040800D01*
X0088605Y0039539D01*
X0087600Y0037113D01*
X0087600Y0034487D01*
X0088605Y0032061D01*
X0089866Y0030800D01*
X0088605Y0029539D01*
X0087600Y0027113D01*
X0087600Y0024487D01*
X0088605Y0022061D01*
X0089866Y0020800D01*
X0088605Y0019539D01*
X0087600Y0017113D01*
X0087600Y0014487D01*
X0088605Y0012061D01*
X0090461Y0010205D01*
X0089025Y0011641D02*
X0074575Y0011641D01*
X0075483Y0013240D02*
X0088117Y0013240D01*
X0087600Y0014838D02*
X0076000Y0014838D01*
X0076000Y0016437D02*
X0087600Y0016437D01*
X0087982Y0018035D02*
X0075618Y0018035D01*
X0074900Y0019634D02*
X0088700Y0019634D01*
X0089434Y0021232D02*
X0074166Y0021232D01*
X0075314Y0022831D02*
X0088286Y0022831D01*
X0087624Y0024429D02*
X0075976Y0024429D01*
X0076000Y0026028D02*
X0087600Y0026028D01*
X0087813Y0027626D02*
X0075787Y0027626D01*
X0075125Y0029225D02*
X0088475Y0029225D01*
X0089843Y0030823D02*
X0073757Y0030823D01*
X0075144Y0032422D02*
X0088456Y0032422D01*
X0087793Y0034020D02*
X0075807Y0034020D01*
X0076000Y0035619D02*
X0087600Y0035619D01*
X0087643Y0037217D02*
X0075957Y0037217D01*
X0075295Y0038816D02*
X0088305Y0038816D01*
X0089480Y0040414D02*
X0074120Y0040414D01*
X0074947Y0042013D02*
X0088653Y0042013D01*
X0087963Y0043611D02*
X0075637Y0043611D01*
X0076000Y0045210D02*
X0087600Y0045210D01*
X0087600Y0046808D02*
X0076000Y0046808D01*
X0075464Y0048407D02*
X0088136Y0048407D01*
X0089072Y0050005D02*
X0074528Y0050005D01*
X0074538Y0051604D02*
X0089062Y0051604D01*
X0088132Y0053202D02*
X0075468Y0053202D01*
X0076000Y0054801D02*
X0087600Y0054801D01*
X0087600Y0056399D02*
X0076000Y0056399D01*
X0075633Y0057998D02*
X0087967Y0057998D01*
X0088663Y0059596D02*
X0074937Y0059596D01*
X0074129Y0061195D02*
X0089471Y0061195D01*
X0088302Y0062793D02*
X0075298Y0062793D01*
X0075961Y0064392D02*
X0087639Y0064392D01*
X0087600Y0065990D02*
X0076000Y0065990D01*
X0075803Y0067589D02*
X0087797Y0067589D01*
X0088459Y0069187D02*
X0075141Y0069187D01*
X0073748Y0070786D02*
X0089852Y0070786D01*
X0088471Y0072384D02*
X0072185Y0072384D01*
X0073412Y0073983D02*
X0087809Y0073983D01*
X0087600Y0075582D02*
X0073800Y0075582D01*
X0073578Y0077180D02*
X0087628Y0077180D01*
X0088290Y0078779D02*
X0072644Y0078779D01*
X0073311Y0080377D02*
X0089443Y0080377D01*
X0091863Y0081976D02*
X0074909Y0081976D01*
X0075622Y0083574D02*
X0090396Y0083574D01*
X0089845Y0085173D02*
X0076000Y0085173D01*
X0076000Y0086771D02*
X0089899Y0086771D01*
X0090628Y0088370D02*
X0075479Y0088370D01*
X0074566Y0089968D02*
X0091033Y0089968D01*
X0089100Y0091567D02*
X0074500Y0091567D01*
X0075452Y0093165D02*
X0088148Y0093165D01*
X0087600Y0094764D02*
X0076000Y0094764D01*
X0076000Y0096362D02*
X0087600Y0096362D01*
X0087951Y0097961D02*
X0075649Y0097961D01*
X0074975Y0099559D02*
X0088625Y0099559D01*
X0089508Y0101158D02*
X0074091Y0101158D01*
X0075283Y0102756D02*
X0088317Y0102756D01*
X0087655Y0104355D02*
X0075945Y0104355D01*
X0076000Y0105953D02*
X0087600Y0105953D01*
X0087782Y0107552D02*
X0075818Y0107552D01*
X0075156Y0109150D02*
X0088444Y0109150D01*
X0089815Y0110749D02*
X0073785Y0110749D01*
X0075114Y0112347D02*
X0088486Y0112347D01*
X0087824Y0113946D02*
X0075776Y0113946D01*
X0076000Y0115544D02*
X0087600Y0115544D01*
X0087612Y0117143D02*
X0075988Y0117143D01*
X0075325Y0118741D02*
X0088275Y0118741D01*
X0089406Y0120340D02*
X0074194Y0120340D01*
X0074872Y0121938D02*
X0088728Y0121938D01*
X0087994Y0123537D02*
X0075606Y0123537D01*
X0076000Y0125135D02*
X0087600Y0125135D01*
X0087600Y0126734D02*
X0076000Y0126734D01*
X0075495Y0128332D02*
X0088105Y0128332D01*
X0088997Y0129931D02*
X0074603Y0129931D01*
X0074463Y0131529D02*
X0089137Y0131529D01*
X0088163Y0133128D02*
X0075437Y0133128D01*
X0076000Y0134726D02*
X0087600Y0134726D01*
X0087600Y0136325D02*
X0076000Y0136325D01*
X0075664Y0137923D02*
X0087936Y0137923D01*
X0088598Y0139522D02*
X0075002Y0139522D01*
X0074054Y0141120D02*
X0089546Y0141120D01*
X0088332Y0142719D02*
X0075268Y0142719D01*
X0075930Y0144318D02*
X0087670Y0144318D01*
X0087600Y0145916D02*
X0076000Y0145916D01*
X0075834Y0147515D02*
X0087766Y0147515D01*
X0088429Y0149113D02*
X0075171Y0149113D01*
X0073822Y0150712D02*
X0089778Y0150712D01*
X0092670Y0152310D02*
X0070930Y0152310D01*
X0062670Y0152310D02*
X0019600Y0152310D01*
X0019600Y0150712D02*
X0059778Y0150712D01*
X0058429Y0149113D02*
X0019176Y0149113D01*
X0018575Y0147515D02*
X0057766Y0147515D01*
X0057600Y0145916D02*
X0017652Y0145916D01*
X0016134Y0144318D02*
X0057670Y0144318D01*
X0058332Y0142719D02*
X0013738Y0142719D01*
X0016585Y0139734D02*
X0014616Y0137765D01*
X0013550Y0135192D01*
X0013550Y0126408D01*
X0014616Y0123835D01*
X0016585Y0121866D01*
X0019158Y0120800D01*
X0021942Y0120800D01*
X0024515Y0121866D01*
X0026484Y0123835D01*
X0026852Y0124723D01*
X0026889Y0124673D01*
X0027423Y0124139D01*
X0028034Y0123695D01*
X0028707Y0123352D01*
X0029426Y0123118D01*
X0030172Y0123000D01*
X0030350Y0123000D01*
X0030350Y0130600D01*
X0030750Y0130600D01*
X0030750Y0123000D01*
X0030928Y0123000D01*
X0031674Y0123118D01*
X0032393Y0123352D01*
X0033066Y0123695D01*
X0033677Y0124139D01*
X0034211Y0124673D01*
X0034248Y0124723D01*
X0034616Y0123835D01*
X0036585Y0121866D01*
X0039158Y0120800D01*
X0041942Y0120800D01*
X0044515Y0121866D01*
X0046484Y0123835D01*
X0047550Y0126408D01*
X0047550Y0135192D01*
X0046484Y0137765D01*
X0044515Y0139734D01*
X0041942Y0140800D01*
X0039158Y0140800D01*
X0036585Y0139734D01*
X0034616Y0137765D01*
X0034248Y0136877D01*
X0034211Y0136927D01*
X0033677Y0137461D01*
X0033066Y0137905D01*
X0032393Y0138248D01*
X0031674Y0138482D01*
X0030928Y0138600D01*
X0030750Y0138600D01*
X0030750Y0131000D01*
X0030350Y0131000D01*
X0030350Y0138600D01*
X0030172Y0138600D01*
X0029426Y0138482D01*
X0028707Y0138248D01*
X0028034Y0137905D01*
X0027423Y0137461D01*
X0026889Y0136927D01*
X0026852Y0136877D01*
X0026484Y0137765D01*
X0024515Y0139734D01*
X0021942Y0140800D01*
X0019158Y0140800D01*
X0016585Y0139734D01*
X0016372Y0139522D02*
X0007400Y0139522D01*
X0007400Y0141120D02*
X0059546Y0141120D01*
X0058598Y0139522D02*
X0044727Y0139522D01*
X0046326Y0137923D02*
X0057936Y0137923D01*
X0057600Y0136325D02*
X0047081Y0136325D01*
X0047550Y0134726D02*
X0057600Y0134726D01*
X0058163Y0133128D02*
X0047550Y0133128D01*
X0047550Y0131529D02*
X0059137Y0131529D01*
X0058997Y0129931D02*
X0047550Y0129931D01*
X0047550Y0128332D02*
X0058105Y0128332D01*
X0057600Y0126734D02*
X0047550Y0126734D01*
X0047023Y0125135D02*
X0057600Y0125135D01*
X0057994Y0123537D02*
X0046186Y0123537D01*
X0044588Y0121938D02*
X0058728Y0121938D01*
X0059406Y0120340D02*
X0007400Y0120340D01*
X0007400Y0121938D02*
X0016512Y0121938D01*
X0014914Y0123537D02*
X0007400Y0123537D01*
X0007400Y0125135D02*
X0014077Y0125135D01*
X0013550Y0126734D02*
X0007400Y0126734D01*
X0007400Y0128332D02*
X0013550Y0128332D01*
X0013550Y0129931D02*
X0007400Y0129931D01*
X0007400Y0131529D02*
X0013550Y0131529D01*
X0013550Y0133128D02*
X0007400Y0133128D01*
X0007400Y0134726D02*
X0013550Y0134726D01*
X0014019Y0136325D02*
X0007400Y0136325D01*
X0007400Y0137923D02*
X0014774Y0137923D01*
X0024727Y0139522D02*
X0036372Y0139522D01*
X0034774Y0137923D02*
X0033030Y0137923D01*
X0030750Y0137923D02*
X0030350Y0137923D01*
X0030350Y0136325D02*
X0030750Y0136325D01*
X0030750Y0134726D02*
X0030350Y0134726D01*
X0030350Y0133128D02*
X0030750Y0133128D01*
X0030750Y0131529D02*
X0030350Y0131529D01*
X0030350Y0129931D02*
X0030750Y0129931D01*
X0030750Y0128332D02*
X0030350Y0128332D01*
X0030350Y0126734D02*
X0030750Y0126734D01*
X0030750Y0125135D02*
X0030350Y0125135D01*
X0030350Y0123537D02*
X0030750Y0123537D01*
X0032756Y0123537D02*
X0034914Y0123537D01*
X0036512Y0121938D02*
X0024588Y0121938D01*
X0026186Y0123537D02*
X0028344Y0123537D01*
X0023449Y0114050D02*
X0017651Y0114050D01*
X0013550Y0109949D01*
X0013550Y0104151D01*
X0017651Y0100050D01*
X0023449Y0100050D01*
X0027106Y0103706D01*
X0028562Y0102250D01*
X0030350Y0102250D01*
X0030350Y0106850D01*
X0030750Y0106850D01*
X0030750Y0107250D01*
X0030350Y0107250D01*
X0030350Y0111850D01*
X0028562Y0111850D01*
X0027106Y0110394D01*
X0023449Y0114050D01*
X0023554Y0113946D02*
X0057824Y0113946D01*
X0057600Y0115544D02*
X0007400Y0115544D01*
X0007400Y0113946D02*
X0017546Y0113946D01*
X0015948Y0112347D02*
X0007400Y0112347D01*
X0007400Y0110749D02*
X0014349Y0110749D01*
X0013550Y0109150D02*
X0007400Y0109150D01*
X0007400Y0107552D02*
X0013550Y0107552D01*
X0013550Y0105953D02*
X0007400Y0105953D01*
X0007400Y0104355D02*
X0013550Y0104355D01*
X0014944Y0102756D02*
X0007400Y0102756D01*
X0007400Y0101158D02*
X0016543Y0101158D01*
X0024557Y0101158D02*
X0059508Y0101158D01*
X0058625Y0099559D02*
X0007400Y0099559D01*
X0007400Y0097961D02*
X0057951Y0097961D01*
X0057600Y0096362D02*
X0007400Y0096362D01*
X0007400Y0094764D02*
X0057600Y0094764D01*
X0058148Y0093165D02*
X0007400Y0093165D01*
X0007400Y0091567D02*
X0059100Y0091567D01*
X0059034Y0089968D02*
X0007400Y0089968D01*
X0007400Y0088370D02*
X0058121Y0088370D01*
X0057600Y0086771D02*
X0007400Y0086771D01*
X0007400Y0085173D02*
X0057600Y0085173D01*
X0057978Y0083574D02*
X0007400Y0083574D01*
X0007400Y0081976D02*
X0058691Y0081976D01*
X0058317Y0102756D02*
X0033044Y0102756D01*
X0032538Y0102250D02*
X0035350Y0105062D01*
X0035350Y0106850D01*
X0030750Y0106850D01*
X0030750Y0102250D01*
X0032538Y0102250D01*
X0030750Y0102756D02*
X0030350Y0102756D01*
X0030350Y0104355D02*
X0030750Y0104355D01*
X0030750Y0105953D02*
X0030350Y0105953D01*
X0030750Y0107250D02*
X0035350Y0107250D01*
X0035350Y0109038D01*
X0032538Y0111850D01*
X0030750Y0111850D01*
X0030750Y0107250D01*
X0030750Y0107552D02*
X0030350Y0107552D01*
X0030350Y0109150D02*
X0030750Y0109150D01*
X0030750Y0110749D02*
X0030350Y0110749D01*
X0027461Y0110749D02*
X0026751Y0110749D01*
X0025152Y0112347D02*
X0058486Y0112347D01*
X0059815Y0110749D02*
X0033639Y0110749D01*
X0035238Y0109150D02*
X0058444Y0109150D01*
X0057782Y0107552D02*
X0035350Y0107552D01*
X0035350Y0105953D02*
X0057600Y0105953D01*
X0057655Y0104355D02*
X0034643Y0104355D01*
X0028056Y0102756D02*
X0026156Y0102756D01*
X0007400Y0117143D02*
X0057612Y0117143D01*
X0058275Y0118741D02*
X0007400Y0118741D01*
X0026326Y0137923D02*
X0028070Y0137923D01*
X0019465Y0153909D02*
X0134135Y0153909D01*
X0134000Y0152310D02*
X0100930Y0152310D01*
X0103822Y0150712D02*
X0134000Y0150712D01*
X0134424Y0149113D02*
X0105171Y0149113D01*
X0105834Y0147515D02*
X0135025Y0147515D01*
X0135948Y0145916D02*
X0106000Y0145916D01*
X0105930Y0144318D02*
X0137466Y0144318D01*
X0139862Y0142719D02*
X0105268Y0142719D01*
X0104054Y0141120D02*
X0119509Y0141120D01*
X0120088Y0141700D02*
X0115900Y0137512D01*
X0115900Y0131588D01*
X0120088Y0127400D01*
X0126012Y0127400D01*
X0129606Y0130994D01*
X0131000Y0129600D01*
X0133050Y0129600D01*
X0135100Y0129600D01*
X0138000Y0132500D01*
X0138000Y0134550D01*
X0138000Y0136600D01*
X0135100Y0139500D01*
X0133050Y0139500D01*
X0133050Y0134550D01*
X0138000Y0134550D01*
X0133050Y0134550D01*
X0133050Y0134550D01*
X0133050Y0134550D01*
X0133050Y0129600D01*
X0133050Y0134550D01*
X0133050Y0134550D01*
X0133050Y0139500D01*
X0131000Y0139500D01*
X0129606Y0138106D01*
X0126012Y0141700D01*
X0120088Y0141700D01*
X0117910Y0139522D02*
X0105002Y0139522D01*
X0105664Y0137923D02*
X0116312Y0137923D01*
X0115900Y0136325D02*
X0106000Y0136325D01*
X0106000Y0134726D02*
X0115900Y0134726D01*
X0115900Y0133128D02*
X0105437Y0133128D01*
X0104463Y0131529D02*
X0115959Y0131529D01*
X0117557Y0129931D02*
X0104603Y0129931D01*
X0105495Y0128332D02*
X0119156Y0128332D01*
X0126944Y0128332D02*
X0146200Y0128332D01*
X0146200Y0126734D02*
X0106000Y0126734D01*
X0106000Y0125135D02*
X0146200Y0125135D01*
X0146200Y0123537D02*
X0105606Y0123537D01*
X0104872Y0121938D02*
X0146200Y0121938D01*
X0146200Y0120340D02*
X0104194Y0120340D01*
X0105325Y0118741D02*
X0146200Y0118741D01*
X0146200Y0117143D02*
X0105988Y0117143D01*
X0106000Y0115544D02*
X0118960Y0115544D01*
X0119311Y0115895D02*
X0117455Y0114039D01*
X0116450Y0111613D01*
X0116450Y0108987D01*
X0117455Y0106561D01*
X0119311Y0104705D01*
X0121737Y0103700D01*
X0124363Y0103700D01*
X0126789Y0104705D01*
X0128645Y0106561D01*
X0129650Y0108987D01*
X0129650Y0111613D01*
X0128645Y0114039D01*
X0126789Y0115895D01*
X0124363Y0116900D01*
X0121737Y0116900D01*
X0119311Y0115895D01*
X0117416Y0113946D02*
X0105776Y0113946D01*
X0105114Y0112347D02*
X0116754Y0112347D01*
X0116450Y0110749D02*
X0103785Y0110749D01*
X0105156Y0109150D02*
X0116450Y0109150D01*
X0117045Y0107552D02*
X0105818Y0107552D01*
X0106000Y0105953D02*
X0118063Y0105953D01*
X0120157Y0104355D02*
X0105945Y0104355D01*
X0105283Y0102756D02*
X0146200Y0102756D01*
X0146200Y0101158D02*
X0104092Y0101158D01*
X0104975Y0099559D02*
X0146200Y0099559D01*
X0146200Y0097961D02*
X0105649Y0097961D01*
X0106000Y0096362D02*
X0118778Y0096362D01*
X0119311Y0096895D02*
X0117455Y0095039D01*
X0116450Y0092613D01*
X0116450Y0089987D01*
X0117455Y0087561D01*
X0119311Y0085705D01*
X0121737Y0084700D01*
X0124363Y0084700D01*
X0126789Y0085705D01*
X0128645Y0087561D01*
X0129650Y0089987D01*
X0129650Y0092613D01*
X0128645Y0095039D01*
X0126789Y0096895D01*
X0124363Y0097900D01*
X0121737Y0097900D01*
X0119311Y0096895D01*
X0117341Y0094764D02*
X0106000Y0094764D01*
X0105452Y0093165D02*
X0116679Y0093165D01*
X0116450Y0091567D02*
X0104500Y0091567D01*
X0102567Y0089968D02*
X0116458Y0089968D01*
X0117120Y0088370D02*
X0102972Y0088370D01*
X0103701Y0086771D02*
X0118245Y0086771D01*
X0120596Y0085173D02*
X0103755Y0085173D01*
X0103204Y0083574D02*
X0146200Y0083574D01*
X0146200Y0081976D02*
X0101737Y0081976D01*
X0104157Y0080377D02*
X0146200Y0080377D01*
X0146200Y0078779D02*
X0105310Y0078779D01*
X0105972Y0077180D02*
X0146200Y0077180D01*
X0146200Y0075582D02*
X0106000Y0075582D01*
X0105791Y0073983D02*
X0118621Y0073983D01*
X0120088Y0075450D02*
X0115900Y0071262D01*
X0115900Y0065338D01*
X0120088Y0061150D01*
X0126012Y0061150D01*
X0129606Y0064744D01*
X0131000Y0063350D01*
X0133050Y0063350D01*
X0135100Y0063350D01*
X0138000Y0066250D01*
X0138000Y0068300D01*
X0138000Y0070350D01*
X0135100Y0073250D01*
X0133050Y0073250D01*
X0133050Y0068300D01*
X0138000Y0068300D01*
X0133050Y0068300D01*
X0133050Y0068300D01*
X0133050Y0068300D01*
X0133050Y0063350D01*
X0133050Y0068300D01*
X0133050Y0068300D01*
X0133050Y0073250D01*
X0131000Y0073250D01*
X0129606Y0071856D01*
X0126012Y0075450D01*
X0120088Y0075450D01*
X0117023Y0072384D02*
X0105129Y0072384D01*
X0103748Y0070786D02*
X0115900Y0070786D01*
X0115900Y0069187D02*
X0105141Y0069187D01*
X0105803Y0067589D02*
X0115900Y0067589D01*
X0115900Y0065990D02*
X0106000Y0065990D01*
X0105961Y0064392D02*
X0116846Y0064392D01*
X0118445Y0062793D02*
X0105298Y0062793D01*
X0104129Y0061195D02*
X0120043Y0061195D01*
X0126057Y0061195D02*
X0146200Y0061195D01*
X0146200Y0062793D02*
X0127655Y0062793D01*
X0129254Y0064392D02*
X0129958Y0064392D01*
X0133050Y0064392D02*
X0133050Y0064392D01*
X0133050Y0065990D02*
X0133050Y0065990D01*
X0133050Y0067589D02*
X0133050Y0067589D01*
X0133050Y0069187D02*
X0133050Y0069187D01*
X0133050Y0070786D02*
X0133050Y0070786D01*
X0133050Y0072384D02*
X0133050Y0072384D01*
X0130134Y0072384D02*
X0129077Y0072384D01*
X0127479Y0073983D02*
X0146200Y0073983D01*
X0146200Y0072384D02*
X0135966Y0072384D01*
X0137564Y0070786D02*
X0146200Y0070786D01*
X0146200Y0069187D02*
X0138000Y0069187D01*
X0138000Y0067589D02*
X0146200Y0067589D01*
X0146200Y0065990D02*
X0137741Y0065990D01*
X0136142Y0064392D02*
X0146200Y0064392D01*
X0146200Y0059596D02*
X0104937Y0059596D01*
X0105633Y0057998D02*
X0146200Y0057998D01*
X0146200Y0056399D02*
X0106000Y0056399D01*
X0106000Y0054801D02*
X0133641Y0054801D01*
X0131453Y0053202D02*
X0117678Y0053202D01*
X0117378Y0053250D02*
X0118124Y0053132D01*
X0118843Y0052898D01*
X0119516Y0052555D01*
X0120127Y0052111D01*
X0120661Y0051577D01*
X0121105Y0050966D01*
X0121448Y0050293D01*
X0121682Y0049574D01*
X0121800Y0048828D01*
X0121800Y0048650D01*
X0114200Y0048650D01*
X0113800Y0048650D01*
X0113800Y0053250D01*
X0110622Y0053250D01*
X0109876Y0053132D01*
X0109157Y0052898D01*
X0108484Y0052555D01*
X0107873Y0052111D01*
X0107339Y0051577D01*
X0106895Y0050966D01*
X0106552Y0050293D01*
X0106318Y0049574D01*
X0106200Y0048828D01*
X0106200Y0048650D01*
X0113800Y0048650D01*
X0113800Y0048250D01*
X0114200Y0048250D01*
X0114200Y0048650D01*
X0114200Y0053250D01*
X0117378Y0053250D01*
X0114200Y0053202D02*
X0113800Y0053202D01*
X0113800Y0051604D02*
X0114200Y0051604D01*
X0114200Y0050005D02*
X0113800Y0050005D01*
X0113800Y0048407D02*
X0105464Y0048407D01*
X0106200Y0048250D02*
X0106200Y0048072D01*
X0106318Y0047326D01*
X0106552Y0046607D01*
X0106895Y0045934D01*
X0107339Y0045323D01*
X0107873Y0044789D01*
X0108484Y0044345D01*
X0109157Y0044002D01*
X0109876Y0043768D01*
X0110622Y0043650D01*
X0113800Y0043650D01*
X0113800Y0048250D01*
X0106200Y0048250D01*
X0106000Y0046808D02*
X0106486Y0046808D01*
X0106000Y0045210D02*
X0107452Y0045210D01*
X0105637Y0043611D02*
X0131539Y0043611D01*
X0130365Y0045210D02*
X0120548Y0045210D01*
X0120661Y0045323D02*
X0121105Y0045934D01*
X0121448Y0046607D01*
X0121682Y0047326D01*
X0121800Y0048072D01*
X0121800Y0048250D01*
X0114200Y0048250D01*
X0114200Y0043650D01*
X0117378Y0043650D01*
X0118124Y0043768D01*
X0118843Y0044002D01*
X0119516Y0044345D01*
X0120127Y0044789D01*
X0120661Y0045323D01*
X0121514Y0046808D02*
X0129703Y0046808D01*
X0129600Y0048407D02*
X0114200Y0048407D01*
X0114200Y0046808D02*
X0113800Y0046808D01*
X0113800Y0045210D02*
X0114200Y0045210D01*
X0110322Y0053202D02*
X0105468Y0053202D01*
X0104538Y0051604D02*
X0107366Y0051604D01*
X0106458Y0050005D02*
X0104528Y0050005D01*
X0104947Y0042013D02*
X0133849Y0042013D01*
X0134163Y0037217D02*
X0119437Y0037217D01*
X0121931Y0035619D02*
X0131669Y0035619D01*
X0130419Y0034020D02*
X0123181Y0034020D01*
X0123843Y0032422D02*
X0129757Y0032422D01*
X0129600Y0030823D02*
X0124000Y0030823D01*
X0123986Y0029225D02*
X0129614Y0029225D01*
X0130276Y0027626D02*
X0123324Y0027626D01*
X0122277Y0026028D02*
X0131323Y0026028D01*
X0133327Y0024429D02*
X0120273Y0024429D01*
X0117866Y0019634D02*
X0140887Y0019634D01*
X0137147Y0018035D02*
X0119464Y0018035D01*
X0121063Y0016437D02*
X0135370Y0016437D01*
X0134210Y0014838D02*
X0121300Y0014838D01*
X0121300Y0013240D02*
X0133375Y0013240D01*
X0132947Y0011641D02*
X0121300Y0011641D01*
X0120942Y0010043D02*
X0132750Y0010043D01*
X0132750Y0008444D02*
X0119344Y0008444D01*
X0109256Y0008444D02*
X0019600Y0008444D01*
X0102747Y0010043D02*
X0107658Y0010043D01*
X0107300Y0011641D02*
X0104575Y0011641D01*
X0105483Y0013240D02*
X0107300Y0013240D01*
X0107300Y0014838D02*
X0106000Y0014838D01*
X0106000Y0016437D02*
X0107537Y0016437D01*
X0109136Y0018035D02*
X0105618Y0018035D01*
X0104900Y0019634D02*
X0110734Y0019634D01*
X0107727Y0024429D02*
X0105976Y0024429D01*
X0105314Y0022831D02*
X0146200Y0022831D01*
X0146200Y0024429D02*
X0145873Y0024429D01*
X0146200Y0021232D02*
X0104166Y0021232D01*
X0106000Y0035619D02*
X0106069Y0035619D01*
X0105957Y0037217D02*
X0108563Y0037217D01*
X0105295Y0038816D02*
X0146200Y0038816D01*
X0146200Y0040414D02*
X0104120Y0040414D01*
X0120634Y0051604D02*
X0130330Y0051604D01*
X0129668Y0050005D02*
X0121542Y0050005D01*
X0145559Y0054801D02*
X0146200Y0054801D01*
X0146200Y0042013D02*
X0145351Y0042013D01*
X0145037Y0037217D02*
X0146200Y0037217D01*
X0146200Y0019634D02*
X0145213Y0019634D01*
X0146200Y0085173D02*
X0125504Y0085173D01*
X0127855Y0086771D02*
X0146200Y0086771D01*
X0146200Y0088370D02*
X0128980Y0088370D01*
X0129642Y0089968D02*
X0146200Y0089968D01*
X0146200Y0091567D02*
X0129650Y0091567D01*
X0129421Y0093165D02*
X0146200Y0093165D01*
X0146200Y0094764D02*
X0128759Y0094764D01*
X0127322Y0096362D02*
X0146200Y0096362D01*
X0146200Y0104355D02*
X0125943Y0104355D01*
X0128037Y0105953D02*
X0146200Y0105953D01*
X0146200Y0107552D02*
X0129055Y0107552D01*
X0129650Y0109150D02*
X0146200Y0109150D01*
X0146200Y0110749D02*
X0129650Y0110749D01*
X0129346Y0112347D02*
X0146200Y0112347D01*
X0146200Y0113946D02*
X0128684Y0113946D01*
X0127139Y0115544D02*
X0146200Y0115544D01*
X0146200Y0129931D02*
X0135431Y0129931D01*
X0137030Y0131529D02*
X0146200Y0131529D01*
X0146200Y0133128D02*
X0138000Y0133128D01*
X0138000Y0134726D02*
X0146200Y0134726D01*
X0146200Y0136325D02*
X0138000Y0136325D01*
X0136677Y0137923D02*
X0146200Y0137923D01*
X0146200Y0139522D02*
X0128190Y0139522D01*
X0126591Y0141120D02*
X0146200Y0141120D01*
X0133050Y0137923D02*
X0133050Y0137923D01*
X0133050Y0136325D02*
X0133050Y0136325D01*
X0133050Y0134726D02*
X0133050Y0134726D01*
X0133050Y0133128D02*
X0133050Y0133128D01*
X0133050Y0131529D02*
X0133050Y0131529D01*
X0133050Y0129931D02*
X0133050Y0129931D01*
X0130669Y0129931D02*
X0128543Y0129931D01*
D16*
X0066600Y0056050D02*
X0057600Y0056050D01*
X0044100Y0069550D01*
X0031800Y0069550D01*
X0066600Y0056050D02*
X0066800Y0055800D01*
M02*
