%
M48
M72
T01C0.03200
T02C0.04000
T03C0.11000
%
T01
X66800Y15800
X66800Y25800
X66800Y35800
X66800Y45800
X66800Y55800
X66800Y65800
X66800Y75800
X66800Y85800
X66800Y95800
X66800Y105800
X66800Y115800
X66800Y125800
X66800Y135800
X66800Y145800
X96800Y145800
X96800Y135800
X96800Y125800
X96800Y115800
X96800Y105800
X96800Y95800
X96800Y85800
X96800Y75800
X96800Y65800
X96800Y55800
X96800Y45800
X96800Y35800
X96800Y25800
X96800Y15800
X123050Y68300
X133050Y68300
X123050Y91300
X123050Y110300
X123050Y134550
X133050Y134550
T02
X139600Y48450
X139600Y30650
X114000Y30650
X114300Y13300
X114000Y48450
X41800Y45800
X31800Y45800
X21800Y45800
X21800Y23300
X31800Y23300
X41800Y23300
X31800Y69550
X21800Y69550
X20550Y107050
X30550Y107050
X30550Y130800
X20550Y130800
X40550Y130800
T03
X9300Y9550
X143050Y9550
X144300Y152050
X9300Y152050
M30
